<mxfile host="app.diagrams.net" agent="Mozilla/5.0 (Windows NT 10.0; Win64; x64) AppleWebKit/537.36 (KHTML, like Gecko) Chrome/137.0.0.0 Safari/537.36" version="27.1.6">
  <diagram name="第 1 页" id="wlkyPANYj3qaYbX5V08s">
    <mxGraphModel dx="1213" dy="764" grid="1" gridSize="10" guides="1" tooltips="1" connect="1" arrows="1" fold="1" page="1" pageScale="1" pageWidth="827" pageHeight="1169" math="0" shadow="0">
      <root>
        <mxCell id="0" />
        <mxCell id="1" parent="0" />
        <mxCell id="yNkdOHEQvW9BO1yJiLAc-2" value="事件上报&lt;br&gt;（inform-push-center）" style="rounded=0;whiteSpace=wrap;html=1;" parent="1" vertex="1">
          <mxGeometry x="70" y="150" width="130" height="50" as="geometry" />
        </mxCell>
        <mxCell id="i8MPnxunqH0WxWLCejsa-1" value="" style="edgeStyle=orthogonalEdgeStyle;rounded=0;orthogonalLoop=1;jettySize=auto;html=1;" edge="1" parent="1" source="yNkdOHEQvW9BO1yJiLAc-3" target="yNkdOHEQvW9BO1yJiLAc-18">
          <mxGeometry relative="1" as="geometry" />
        </mxCell>
        <mxCell id="i8MPnxunqH0WxWLCejsa-2" value="发送回调" style="edgeLabel;html=1;align=center;verticalAlign=middle;resizable=0;points=[];" vertex="1" connectable="0" parent="i8MPnxunqH0WxWLCejsa-1">
          <mxGeometry x="0.1536" y="1" relative="1" as="geometry">
            <mxPoint as="offset" />
          </mxGeometry>
        </mxCell>
        <mxCell id="yNkdOHEQvW9BO1yJiLAc-3" value="事件上报&lt;br&gt;（inform-push-center）" style="rounded=0;whiteSpace=wrap;html=1;" parent="1" vertex="1">
          <mxGeometry x="250" y="150" width="130" height="50" as="geometry" />
        </mxCell>
        <mxCell id="yNkdOHEQvW9BO1yJiLAc-4" value="事件上报&lt;br&gt;（inform-push-center）" style="rounded=0;whiteSpace=wrap;html=1;" parent="1" vertex="1">
          <mxGeometry x="430" y="150" width="130" height="50" as="geometry" />
        </mxCell>
        <mxCell id="yNkdOHEQvW9BO1yJiLAc-10" value="" style="endArrow=classic;html=1;rounded=0;exitX=0.443;exitY=1.021;exitDx=0;exitDy=0;exitPerimeter=0;entryX=-0.067;entryY=0.476;entryDx=0;entryDy=0;entryPerimeter=0;" parent="1" source="yNkdOHEQvW9BO1yJiLAc-2" target="yNkdOHEQvW9BO1yJiLAc-18" edge="1">
          <mxGeometry width="50" height="50" relative="1" as="geometry">
            <mxPoint x="110" y="330" as="sourcePoint" />
            <mxPoint x="239.5999999999999" y="289.8399999999999" as="targetPoint" />
          </mxGeometry>
        </mxCell>
        <mxCell id="yNkdOHEQvW9BO1yJiLAc-12" value="接收通知任务" style="edgeLabel;html=1;align=center;verticalAlign=middle;resizable=0;points=[];" parent="yNkdOHEQvW9BO1yJiLAc-10" vertex="1" connectable="0">
          <mxGeometry x="-0.0028" relative="1" as="geometry">
            <mxPoint as="offset" />
          </mxGeometry>
        </mxCell>
        <mxCell id="yNkdOHEQvW9BO1yJiLAc-16" value="" style="endArrow=classic;html=1;rounded=0;exitX=0.351;exitY=1.037;exitDx=0;exitDy=0;exitPerimeter=0;entryX=1.042;entryY=0.452;entryDx=0;entryDy=0;entryPerimeter=0;" parent="1" source="yNkdOHEQvW9BO1yJiLAc-4" target="yNkdOHEQvW9BO1yJiLAc-18" edge="1">
          <mxGeometry width="50" height="50" relative="1" as="geometry">
            <mxPoint x="514.66" y="230.00000000000003" as="sourcePoint" />
            <mxPoint x="400.0019224445216" y="304.1310928920044" as="targetPoint" />
          </mxGeometry>
        </mxCell>
        <mxCell id="yNkdOHEQvW9BO1yJiLAc-17" value="已读回调&lt;div&gt;&lt;br&gt;&lt;/div&gt;" style="edgeLabel;html=1;align=center;verticalAlign=middle;resizable=0;points=[];" parent="yNkdOHEQvW9BO1yJiLAc-16" vertex="1" connectable="0">
          <mxGeometry x="-0.0871" y="3" relative="1" as="geometry">
            <mxPoint as="offset" />
          </mxGeometry>
        </mxCell>
        <mxCell id="yNkdOHEQvW9BO1yJiLAc-20" style="edgeStyle=orthogonalEdgeStyle;rounded=0;orthogonalLoop=1;jettySize=auto;html=1;exitX=0.5;exitY=1;exitDx=0;exitDy=0;exitPerimeter=0;entryX=0.5;entryY=0;entryDx=0;entryDy=0;" parent="1" source="yNkdOHEQvW9BO1yJiLAc-18" target="yNkdOHEQvW9BO1yJiLAc-19" edge="1">
          <mxGeometry relative="1" as="geometry" />
        </mxCell>
        <mxCell id="yNkdOHEQvW9BO1yJiLAc-18" value="消息队列" style="shape=cylinder3;whiteSpace=wrap;html=1;boundedLbl=1;backgroundOutline=1;size=15;" parent="1" vertex="1">
          <mxGeometry x="277.5" y="280" width="75" height="80" as="geometry" />
        </mxCell>
        <mxCell id="yNkdOHEQvW9BO1yJiLAc-19" value="事件处理器&lt;br&gt;（inform-push-center）" style="rounded=0;whiteSpace=wrap;html=1;" parent="1" vertex="1">
          <mxGeometry x="250" y="400" width="130" height="50" as="geometry" />
        </mxCell>
        <mxCell id="yNkdOHEQvW9BO1yJiLAc-22" value="数据库" style="shape=cylinder3;whiteSpace=wrap;html=1;boundedLbl=1;backgroundOutline=1;size=15;" parent="1" vertex="1">
          <mxGeometry x="455" y="480" width="100" height="70" as="geometry" />
        </mxCell>
        <mxCell id="yNkdOHEQvW9BO1yJiLAc-36" value="" style="edgeStyle=orthogonalEdgeStyle;rounded=0;orthogonalLoop=1;jettySize=auto;html=1;" parent="1" source="yNkdOHEQvW9BO1yJiLAc-27" target="yNkdOHEQvW9BO1yJiLAc-22" edge="1">
          <mxGeometry relative="1" as="geometry" />
        </mxCell>
        <mxCell id="yNkdOHEQvW9BO1yJiLAc-27" value="事件查询&lt;br&gt;（inform-push-center）" style="rounded=0;whiteSpace=wrap;html=1;" parent="1" vertex="1">
          <mxGeometry x="440" y="400" width="130" height="50" as="geometry" />
        </mxCell>
        <mxCell id="yNkdOHEQvW9BO1yJiLAc-28" value="事件查询&lt;br&gt;（inform-push-center）" style="rounded=0;whiteSpace=wrap;html=1;" parent="1" vertex="1">
          <mxGeometry x="620" y="400" width="130" height="50" as="geometry" />
        </mxCell>
        <mxCell id="yNkdOHEQvW9BO1yJiLAc-33" value="" style="endArrow=classic;html=1;rounded=0;edgeStyle=orthogonalEdgeStyle;curved=1;exitX=0.5;exitY=1;exitDx=0;exitDy=0;entryX=0.007;entryY=0.572;entryDx=0;entryDy=0;entryPerimeter=0;" parent="1" target="yNkdOHEQvW9BO1yJiLAc-22" edge="1">
          <mxGeometry width="50" height="50" relative="1" as="geometry">
            <mxPoint x="300" y="449.9999999999999" as="sourcePoint" />
            <mxPoint x="510" y="520" as="targetPoint" />
            <Array as="points">
              <mxPoint x="300" y="520" />
            </Array>
          </mxGeometry>
        </mxCell>
        <mxCell id="yNkdOHEQvW9BO1yJiLAc-38" value="" style="endArrow=classic;html=1;rounded=0;exitX=0.75;exitY=1;exitDx=0;exitDy=0;edgeStyle=orthogonalEdgeStyle;curved=1;" parent="1" edge="1">
          <mxGeometry width="50" height="50" relative="1" as="geometry">
            <mxPoint x="687.5" y="450" as="sourcePoint" />
            <mxPoint x="555" y="520" as="targetPoint" />
            <Array as="points">
              <mxPoint x="688" y="520" />
            </Array>
          </mxGeometry>
        </mxCell>
      </root>
    </mxGraphModel>
  </diagram>
</mxfile>
